HIERARCHY
ROOT pelvis
{
	OFFSET 0.00 0.00 0.00
	CHANNELS 6 Xposition Yposition Zposition Xrotation Yrotation Zrotation
	JOINT lfemur
	{
		OFFSET 0.00000 4.00987 0.00000
		CHANNELS 3 Xrotation Yrotation Zrotation
		JOINT ltibia
		{
			OFFSET 0.00000 0.00000 -16.96567
			CHANNELS 3 Xrotation Yrotation Zrotation
			JOINT lfoot
			{
				OFFSET 0.00000 0.00000 -15.14977
				CHANNELS 3 Xrotation Yrotation Zrotation
				JOINT ltoes
				{
					OFFSET 4.80706 0.00000 -0.34192
					CHANNELS 3 Xrotation Yrotation Zrotation
				}
			}
		}
	}
	JOINT rfemur
	{
		OFFSET 0.00000 -4.00987 0.00000
		CHANNELS 3 Xrotation Yrotation Zrotation
		JOINT rtibia
		{
			OFFSET 0.00000 0.00000 -17.37260
			CHANNELS 3 Xrotation Yrotation Zrotation
			JOINT rfoot
			{
				OFFSET 0.00000 0.00000 -14.74017
				CHANNELS 3 Xrotation Yrotation Zrotation
				JOINT rtoes
				{
					OFFSET 4.34786 0.00000 -1.10103
					CHANNELS 3 Xrotation Yrotation Zrotation
				}
			}
		}
	}
	JOINT lowerback
	{
		OFFSET -1.96850 0.00000 4.19271
		CHANNELS 3 Xrotation Yrotation Zrotation
		JOINT upperback
		{
			OFFSET 0.46383 0.00000 7.28365
			CHANNELS 3 Xrotation Yrotation Zrotation
			JOINT lclavicle
			{
				OFFSET 0.00000 0.00000 8.84290
				CHANNELS 3 Xrotation Yrotation Zrotation
				JOINT lhumerus
				{
					OFFSET 0.00000 5.32652 -2.91730
					CHANNELS 3 Xrotation Yrotation Zrotation
					JOINT lradius
					{
						OFFSET 0.00000 0.00000 -11.04679
						CHANNELS 3 Xrotation Yrotation Zrotation
						JOINT lhand
						{
							OFFSET 0.00000 0.00000 -7.95329
							CHANNELS 3 Xrotation Yrotation Zrotation
						}
					}
				}
			}
			JOINT rclavicle
			{
				OFFSET 0.00000 0.00000 8.84290
				CHANNELS 3 Xrotation Yrotation Zrotation
				JOINT rhumerus
				{
					OFFSET 0.00000 -5.91097 -2.78771
					CHANNELS 3 Xrotation Yrotation Zrotation
					JOINT rradius
					{
						OFFSET 0.00000 0.00000 -11.28954
						CHANNELS 3 Xrotation Yrotation Zrotation
						JOINT rhand
						{
							OFFSET 0.00000 0.00000 -7.95361
							CHANNELS 3 Xrotation Yrotation Zrotation
						}
					}
				}
			}
			JOINT LowerNeck
			{
				OFFSET 0.00000 0.00000 8.84290
				CHANNELS 3 Xrotation Yrotation Zrotation
				JOINT Neck
				{
					OFFSET -0.14998 -1.07471 3.07123
					CHANNELS 3 Xrotation Yrotation Zrotation
				}
			}
		}
	}
}
MOTION
Frames: 17
Frame Time: 0.008342
 1.6258 37.8546 35.1070 6.8462 -3.8493 74.8592 -1.6902 9.2915 -14.4366 -0.0000 6.0819 29.8568 -1.0654 0.6933 -3.9666 0.0000 -14.3205 -0.0000 5.6761 8.1040 23.1836 0.0000 7.4125 -34.7294 0.9108 -4.1467 3.4583 0.0000 -4.1140 0.0000 1.0638 -5.0453 0.2349 0.2986 31.9030 -0.1389 0.9276 0.0000 -2.5189 14.1938 -23.8848 -13.3936 -0.0000 -11.8167 -13.0322 0.6516 -5.0075 0.0000 2.0326 0.0000 5.0579 -17.0564 -23.3642 18.5785 -0.0000 -18.7002 7.8139 -3.3633 1.6487 0.0000 2.9821 -7.3992 0.2505 -11.0943 -35.2944 -20.8933
 1.6258 37.8546 35.1070 6.8462 -3.8493 74.8592 -1.6902 9.2915 -14.4366 -0.0000 6.0819 29.8568 -1.0654 0.6933 -3.9666 0.0000 -14.3205 -0.0000 5.6761 8.1040 23.1836 0.0000 7.4125 -34.7294 0.9108 -4.1467 3.4583 0.0000 -4.1140 0.0000 1.0638 -5.0453 0.2349 0.2986 31.9030 -0.1389 0.9276 0.0000 -2.5189 14.1938 -23.8848 -13.3936 -0.0000 -11.8167 -13.0322 0.6516 -5.0075 0.0000 2.0326 0.0000 5.0579 -17.0564 -23.3642 18.5785 -0.0000 -18.7002 7.8139 -3.3633 1.6487 0.0000 2.9821 -7.3992 0.2505 -11.0943 -35.2944 -20.8933
 1.6258 37.8546 35.1070 6.8462 -3.8493 74.8592 -1.6902 9.2915 -14.4366 -0.0000 6.0819 29.8568 -1.0654 0.6933 -3.9666 0.0000 -14.3205 -0.0000 5.6761 8.1040 23.1836 0.0000 7.4125 -34.7294 0.9108 -4.1467 3.4583 0.0000 -4.1140 0.0000 1.0638 -5.0453 0.2349 0.2986 31.9030 -0.1389 0.9276 0.0000 -2.5189 14.1938 -23.8848 -13.3936 -0.0000 -11.8167 -13.0322 0.6516 -5.0075 0.0000 2.0326 0.0000 5.0579 -17.0564 -23.3642 18.5785 -0.0000 -18.7002 7.8139 -3.3633 1.6487 0.0000 2.9821 -7.3992 0.2505 -11.0943 -35.2944 -20.8933
 1.6258 37.8546 35.1070 6.8462 -3.8493 74.8592 -1.6902 9.2915 -14.4366 -0.0000 6.0819 29.8568 -1.0654 0.6933 -3.9666 0.0000 -14.3205 -0.0000 5.6761 8.1040 23.1836 0.0000 7.4125 -34.7294 0.9108 -4.1467 3.4583 0.0000 -4.1140 0.0000 1.0638 -5.0453 0.2349 0.2986 31.9030 -0.1389 0.9276 0.0000 -2.5189 14.1938 -23.8848 -13.3936 -0.0000 -11.8167 -13.0322 0.6516 -5.0075 0.0000 2.0326 0.0000 5.0579 -17.0564 -23.3642 18.5785 -0.0000 -18.7002 7.8139 -3.3633 1.6487 0.0000 2.9821 -7.3992 0.2505 -11.0943 -35.2944 -20.8933
 1.6258 37.8546 35.1070 6.8462 -3.8493 74.8592 -1.6902 9.2915 -14.4366 -0.0000 6.0819 29.8568 -1.0654 0.6933 -3.9666 0.0000 -14.3205 -0.0000 5.6761 8.1040 23.1836 0.0000 7.4125 -34.7294 0.9108 -4.1467 3.4583 0.0000 -4.1140 0.0000 1.0638 -5.0453 0.2349 0.2986 31.9030 -0.1389 0.9276 0.0000 -2.5189 14.1938 -23.8848 -13.3936 -0.0000 -11.8167 -13.0322 0.6516 -5.0075 0.0000 2.0326 0.0000 5.0579 -17.0564 -23.3642 18.5785 -0.0000 -18.7002 7.8139 -3.3633 1.6487 0.0000 2.9821 -7.3992 0.2505 -11.0943 -35.2944 -20.8933
 1.6217 37.8606 35.1093 6.9001 -3.8442 74.8566 -1.7173 9.4502 -14.6922 -0.0000 5.8835 29.7596 -0.9566 0.7377 -3.5602 0.0000 -14.0990 -0.0000 5.6432 8.1359 22.9432 0.0000 7.4615 -34.6653 0.9564 -4.1461 3.6320 0.0000 -4.1526 0.0000 1.0781 -5.0070 0.2426 0.2480 31.9146 -0.0765 0.8598 0.0000 -2.4669 14.2567 -23.9244 -13.4971 0.0000 -11.7812 -12.8261 0.3987 -4.8800 -0.0000 2.0207 -0.0000 4.9998 -16.9969 -23.4114 18.5324 0.0000 -18.5907 7.7346 -3.1694 1.6286 -0.0000 3.0704 -7.4263 0.2457 -11.2161 -35.3895 -20.8922
 1.6217 37.8606 35.1093 6.9001 -3.8442 74.8566 -1.7173 9.4502 -14.6922 -0.0000 5.8835 29.7596 -0.9566 0.7377 -3.5602 0.0000 -14.0990 -0.0000 5.6432 8.1359 22.9432 0.0000 7.4615 -34.6653 0.9564 -4.1461 3.6320 0.0000 -4.1526 0.0000 1.0781 -5.0070 0.2426 0.2480 31.9146 -0.0765 0.8598 0.0000 -2.4669 14.2567 -23.9244 -13.4971 0.0000 -11.7812 -12.8261 0.3987 -4.8800 -0.0000 2.0207 -0.0000 4.9998 -16.9969 -23.4114 18.5324 0.0000 -18.5907 7.7346 -3.1694 1.6286 -0.0000 3.0704 -7.4263 0.2457 -11.2161 -35.3895 -20.8922
 1.6217 37.8606 35.1093 6.9001 -3.8442 74.8566 -1.7173 9.4502 -14.6922 -0.0000 5.8835 29.7596 -0.9566 0.7377 -3.5602 0.0000 -14.0990 -0.0000 5.6432 8.1359 22.9432 0.0000 7.4615 -34.6653 0.9564 -4.1461 3.6320 0.0000 -4.1526 0.0000 1.0781 -5.0070 0.2426 0.2480 31.9146 -0.0765 0.8598 0.0000 -2.4669 14.2567 -23.9244 -13.4971 0.0000 -11.7812 -12.8261 0.3987 -4.8800 -0.0000 2.0207 -0.0000 4.9998 -16.9969 -23.4114 18.5324 0.0000 -18.5907 7.7346 -3.1694 1.6286 -0.0000 3.0704 -7.4263 0.2457 -11.2161 -35.3895 -20.8922
 1.6217 37.8606 35.1093 6.9001 -3.8442 74.8566 -1.7173 9.4502 -14.6922 -0.0000 5.8835 29.7596 -0.9566 0.7377 -3.5602 0.0000 -14.0990 -0.0000 5.6432 8.1359 22.9432 0.0000 7.4615 -34.6653 0.9564 -4.1461 3.6320 0.0000 -4.1526 0.0000 1.0781 -5.0070 0.2426 0.2480 31.9146 -0.0765 0.8598 0.0000 -2.4669 14.2567 -23.9244 -13.4971 0.0000 -11.7812 -12.8261 0.3987 -4.8800 -0.0000 2.0207 -0.0000 4.9998 -16.9969 -23.4114 18.5324 0.0000 -18.5907 7.7346 -3.1694 1.6286 -0.0000 3.0704 -7.4263 0.2457 -11.2161 -35.3895 -20.8922
 1.6217 37.8606 35.1093 6.9001 -3.8442 74.8566 -1.7173 9.4502 -14.6922 -0.0000 5.8835 29.7596 -0.9566 0.7377 -3.5602 0.0000 -14.0990 -0.0000 5.6432 8.1359 22.9432 0.0000 7.4615 -34.6653 0.9564 -4.1461 3.6320 0.0000 -4.1526 0.0000 1.0781 -5.0070 0.2426 0.2480 31.9146 -0.0765 0.8598 0.0000 -2.4669 14.2567 -23.9244 -13.4971 0.0000 -11.7812 -12.8261 0.3987 -4.8800 -0.0000 2.0207 -0.0000 4.9998 -16.9969 -23.4114 18.5324 0.0000 -18.5907 7.7346 -3.1694 1.6286 -0.0000 3.0704 -7.4263 0.2457 -11.2161 -35.3895 -20.8922
 1.6217 37.8606 35.1093 6.9001 -3.8442 74.8566 -1.7173 9.4502 -14.6922 -0.0000 5.8835 29.7596 -0.9566 0.7377 -3.5602 0.0000 -14.0990 -0.0000 5.6432 8.1359 22.9432 0.0000 7.4615 -34.6653 0.9564 -4.1461 3.6320 0.0000 -4.1526 0.0000 1.0781 -5.0070 0.2426 0.2480 31.9146 -0.0765 0.8598 0.0000 -2.4669 14.2567 -23.9244 -13.4971 0.0000 -11.7812 -12.8261 0.3987 -4.8800 -0.0000 2.0207 -0.0000 4.9998 -16.9969 -23.4114 18.5324 0.0000 -18.5907 7.7346 -3.1694 1.6286 -0.0000 3.0704 -7.4263 0.2457 -11.2161 -35.3895 -20.8922
 1.6217 37.8606 35.1093 6.9001 -3.8442 74.8566 -1.7173 9.4502 -14.6922 -0.0000 5.8835 29.7596 -0.9566 0.7377 -3.5602 0.0000 -14.0990 -0.0000 5.6432 8.1359 22.9432 0.0000 7.4615 -34.6653 0.9564 -4.1461 3.6320 0.0000 -4.1526 0.0000 1.0781 -5.0070 0.2426 0.2480 31.9146 -0.0765 0.8598 0.0000 -2.4669 14.2567 -23.9244 -13.4971 0.0000 -11.7812 -12.8261 0.3987 -4.8800 -0.0000 2.0207 -0.0000 4.9998 -16.9969 -23.4114 18.5324 0.0000 -18.5907 7.7346 -3.1694 1.6286 -0.0000 3.0704 -7.4263 0.2457 -11.2161 -35.3895 -20.8922
 1.6195 37.8559 35.1097 6.9041 -3.8344 74.8980 -1.7101 9.4586 -14.6791 0.0000 5.8364 29.7807 -0.9834 0.8027 -3.6588 0.0000 -14.2291 0.0000 5.6344 8.1453 22.9680 0.0000 7.4296 -34.7623 0.9653 -4.1400 3.6654 0.0000 -4.1096 0.0000 1.0788 -4.9914 0.2517 0.2488 31.9138 -0.0917 0.8679 0.0000 -2.4799 14.2438 -23.9047 -13.4566 0.0000 -11.7862 -12.8400 0.5038 -4.8888 0.0000 2.0225 0.0000 4.9906 -16.9891 -23.3878 18.5173 -0.0000 -18.6737 7.6618 -3.1789 1.6705 0.0000 3.0285 -7.4986 0.1229 -11.0399 -35.3893 -20.6800
 1.6195 37.8559 35.1097 6.9041 -3.8344 74.8980 -1.7101 9.4586 -14.6791 0.0000 5.8364 29.7807 -0.9834 0.8027 -3.6588 0.0000 -14.2291 0.0000 5.6344 8.1453 22.9680 0.0000 7.4296 -34.7623 0.9653 -4.1400 3.6654 0.0000 -4.1096 0.0000 1.0788 -4.9914 0.2517 0.2488 31.9138 -0.0917 0.8679 0.0000 -2.4799 14.2438 -23.9047 -13.4566 0.0000 -11.7862 -12.8400 0.5038 -4.8888 0.0000 2.0225 0.0000 4.9906 -16.9891 -23.3878 18.5173 -0.0000 -18.6737 7.6618 -3.1789 1.6705 0.0000 3.0285 -7.4986 0.1229 -11.0399 -35.3893 -20.6800
 1.6195 37.8559 35.1097 6.9041 -3.8344 74.8980 -1.7101 9.4586 -14.6791 0.0000 5.8364 29.7807 -0.9834 0.8027 -3.6588 0.0000 -14.2291 0.0000 5.6344 8.1453 22.9680 0.0000 7.4296 -34.7623 0.9653 -4.1400 3.6654 0.0000 -4.1096 0.0000 1.0788 -4.9914 0.2517 0.2488 31.9138 -0.0917 0.8679 0.0000 -2.4799 14.2438 -23.9047 -13.4566 0.0000 -11.7862 -12.8400 0.5038 -4.8888 0.0000 2.0225 0.0000 4.9906 -16.9891 -23.3878 18.5173 -0.0000 -18.6737 7.6618 -3.1789 1.6705 0.0000 3.0285 -7.4986 0.1229 -11.0399 -35.3893 -20.6800
 1.6195 37.8559 35.1097 6.9041 -3.8344 74.8980 -1.7101 9.4586 -14.6791 0.0000 5.8364 29.7807 -0.9834 0.8027 -3.6588 0.0000 -14.2291 0.0000 5.6344 8.1453 22.9680 0.0000 7.4296 -34.7623 0.9653 -4.1400 3.6654 0.0000 -4.1096 0.0000 1.0788 -4.9914 0.2517 0.2488 31.9138 -0.0917 0.8679 0.0000 -2.4799 14.2438 -23.9047 -13.4566 0.0000 -11.7862 -12.8400 0.5038 -4.8888 0.0000 2.0225 0.0000 4.9906 -16.9891 -23.3878 18.5173 -0.0000 -18.6737 7.6618 -3.1789 1.6705 0.0000 3.0285 -7.4986 0.1229 -11.0399 -35.3893 -20.6800
 1.6195 37.8559 35.1097 6.9041 -3.8344 74.8980 -1.7101 9.4586 -14.6791 0.0000 5.8364 29.7807 -0.9834 0.8027 -3.6588 0.0000 -14.2291 0.0000 5.6344 8.1453 22.9680 0.0000 7.4296 -34.7623 0.9653 -4.1400 3.6654 0.0000 -4.1096 0.0000 1.0788 -4.9914 0.2517 0.2488 31.9138 -0.0917 0.8679 0.0000 -2.4799 14.2438 -23.9047 -13.4566 0.0000 -11.7862 -12.8400 0.5038 -4.8888 0.0000 2.0225 0.0000 4.9906 -16.9891 -23.3878 18.5173 -0.0000 -18.6737 7.6618 -3.1789 1.6705 0.0000 3.0285 -7.4986 0.1229 -11.0399 -35.3893 -20.6800
